<svg width="28" height="28" viewBox="0 0 28 28" fill="none" xmlns="http://www.w3.org/2000/svg">
<mask id="mask0_2293_5446" style="mask-type:alpha" maskUnits="userSpaceOnUse" x="0" y="0" width="28" height="28">
<rect width="28" height="28" fill="#D9D9D9"/>
</mask>
<g mask="url(#mask0_2293_5446)">
<path d="M11.6666 22.1666V19.8333C10.0528 19.8333 8.67706 19.2645 7.53956 18.127C6.40206 16.9895 5.83331 15.6139 5.83331 14C5.83331 12.8139 6.15901 11.7347 6.8104 10.7625C7.46179 9.79024 8.34165 9.08052 9.44998 8.6333C9.60554 7.97218 9.95067 7.43746 10.4854 7.02913C11.0201 6.6208 11.6278 6.41663 12.3083 6.41663L12.0458 5.68746C11.9486 5.37635 11.9632 5.07982 12.0896 4.79788C12.216 4.51593 12.4347 4.31663 12.7458 4.19996H12.775C12.6583 3.9083 12.668 3.62149 12.8041 3.33955C12.9403 3.0576 13.1736 2.8583 13.5041 2.74163C13.7958 2.64441 14.0826 2.65899 14.3646 2.78538C14.6465 2.91177 14.8361 3.13052 14.9333 3.44163C15.2444 3.32496 15.5458 3.33468 15.8375 3.4708C16.1291 3.60691 16.3333 3.83052 16.45 4.14163L18.8416 10.7041C18.9583 11.0152 18.9535 11.3118 18.8271 11.5937C18.7007 11.8757 18.4819 12.075 18.1708 12.1916H18.1416C18.2583 12.5027 18.2486 12.8041 18.1125 13.0958C17.9764 13.3875 17.743 13.5916 17.4125 13.7083C17.1208 13.8055 16.834 13.7909 16.5521 13.6645C16.2701 13.5382 16.0805 13.3194 15.9833 13.0083C15.6722 13.125 15.3708 13.1152 15.0791 12.9791C14.7875 12.843 14.5833 12.6194 14.4666 12.3083L14.175 11.4916C13.8833 11.7639 13.5479 11.968 13.1687 12.1041C12.7896 12.2402 12.4055 12.2889 12.0166 12.25C11.5889 12.2111 11.1903 12.0798 10.8208 11.8562C10.4514 11.6326 10.1305 11.3555 9.85831 11.025C9.33331 11.3361 8.92012 11.7541 8.61873 12.2791C8.31734 12.8041 8.16665 13.3777 8.16665 14C8.16665 14.9722 8.50692 15.7986 9.18748 16.4791C9.86804 17.1597 10.6944 17.5 11.6666 17.5H19.8333C20.1639 17.5 20.441 17.6118 20.6646 17.8354C20.8882 18.059 21 18.3361 21 18.6666C21 18.9972 20.8882 19.2743 20.6646 19.4979C20.441 19.7215 20.1639 19.8333 19.8333 19.8333H15.1666V22.1666H21C21.3305 22.1666 21.6076 22.2784 21.8312 22.502C22.0548 22.7257 22.1666 23.0027 22.1666 23.3333C22.1666 23.6638 22.0548 23.9409 21.8312 24.1645C21.6076 24.3882 21.3305 24.5 21 24.5H6.99998C6.66942 24.5 6.39234 24.3882 6.16873 24.1645C5.94512 23.9409 5.83331 23.6638 5.83331 23.3333C5.83331 23.0027 5.94512 22.7257 6.16873 22.502C6.39234 22.2784 6.66942 22.1666 6.99998 22.1666H11.6666ZM15.925 11.1416L16.975 10.7333L14.9916 5.24996L13.8833 5.65829L15.925 11.1416ZM12.25 10.5C12.5805 10.5 12.8576 10.3882 13.0812 10.1645C13.3048 9.94093 13.4166 9.66385 13.4166 9.3333C13.4166 9.00274 13.3048 8.72566 13.0812 8.50205C12.8576 8.27843 12.5805 8.16663 12.25 8.16663C11.9194 8.16663 11.6423 8.27843 11.4187 8.50205C11.1951 8.72566 11.0833 9.00274 11.0833 9.3333C11.0833 9.66385 11.1951 9.94093 11.4187 10.1645C11.6423 10.3882 11.9194 10.5 12.25 10.5Z" fill="#FDFDFE"/>
</g>
</svg>
