<svg width="20" height="20" viewBox="0 0 20 20" fill="none" xmlns="http://www.w3.org/2000/svg">
<path fill-rule="evenodd" clip-rule="evenodd" d="M9.06417 14.5475L10.7525 15.825V12.0309C10.7525 11.8925 10.7875 11.7567 10.8525 11.635L14.4358 5.00004H5.53583L8.97083 11.6484C9.0325 11.7667 9.06417 11.8984 9.06417 12.0309V14.5475ZM11.5858 18.3334C11.4083 18.3334 11.2308 18.2767 11.0833 18.1642L7.72833 15.6267C7.52 15.4692 7.3975 15.2234 7.3975 14.9625V12.2342L3.42667 4.54921C3.2925 4.29087 3.30333 3.98171 3.455 3.73337C3.60583 3.48504 3.87583 3.33337 4.16667 3.33337H15.8333C16.1267 3.33337 16.3983 3.48754 16.5492 3.74004C16.6992 3.99171 16.7058 4.30421 16.5667 4.56254L12.4192 12.2417V17.5C12.4192 17.8159 12.2408 18.105 11.9575 18.2459C11.84 18.3042 11.7125 18.3334 11.5858 18.3334Z" fill="#231F20"/>
<mask id="mask0_3668_7415" style="mask-type:luminance" maskUnits="userSpaceOnUse" x="3" y="3" width="14" height="16">
<path fill-rule="evenodd" clip-rule="evenodd" d="M9.06417 14.5475L10.7525 15.825V12.0309C10.7525 11.8925 10.7875 11.7567 10.8525 11.635L14.4358 5.00004H5.53583L8.97083 11.6484C9.0325 11.7667 9.06417 11.8984 9.06417 12.0309V14.5475ZM11.5858 18.3334C11.4083 18.3334 11.2308 18.2767 11.0833 18.1642L7.72833 15.6267C7.52 15.4692 7.3975 15.2234 7.3975 14.9625V12.2342L3.42667 4.54921C3.2925 4.29087 3.30333 3.98171 3.455 3.73337C3.60583 3.48504 3.87583 3.33337 4.16667 3.33337H15.8333C16.1267 3.33337 16.3983 3.48754 16.5492 3.74004C16.6992 3.99171 16.7058 4.30421 16.5667 4.56254L12.4192 12.2417V17.5C12.4192 17.8159 12.2408 18.105 11.9575 18.2459C11.84 18.3042 11.7125 18.3334 11.5858 18.3334Z" fill="white"/>
</mask>
<g mask="url(#mask0_3668_7415)">
<rect width="20" height="20" fill="#475367"/>
</g>
</svg>
