<svg width="30" height="30" viewBox="0 0 30 30" fill="none" xmlns="http://www.w3.org/2000/svg">
<path fill-rule="evenodd" clip-rule="evenodd" d="M12.5 13.75C15.2575 13.75 17.5 11.5075 17.5 8.75C17.5 5.9925 15.2575 3.75 12.5 3.75C9.7425 3.75 7.5 5.9925 7.5 8.75C7.5 11.5075 9.7425 13.75 12.5 13.75ZM26.25 7.5H25V6.25C25 5.5625 24.4375 5 23.75 5C23.0625 5 22.5 5.5625 22.5 6.25V7.5H21.25C20.5625 7.5 20 8.0625 20 8.75C20 9.4375 20.5625 10 21.25 10H22.5V11.25C22.5 11.9375 23.0625 12.5 23.75 12.5C24.4375 12.5 25 11.9375 25 11.25V10H26.25C26.9375 10 27.5 9.4375 27.5 8.75C27.5 8.0625 26.9375 7.5 26.25 7.5ZM21.25 25C21.25 25.69 20.6912 26.25 20 26.25H5C4.30875 26.25 3.75 25.69 3.75 25C3.75 20.175 7.67625 16.25 12.5 16.25C17.3237 16.25 21.25 20.175 21.25 25Z" fill="#0D8E83"/>
<mask id="mask0_2293_5440" style="mask-type:luminance" maskUnits="userSpaceOnUse" x="3" y="3" width="25" height="24">
<path fill-rule="evenodd" clip-rule="evenodd" d="M12.5 13.75C15.2575 13.75 17.5 11.5075 17.5 8.75C17.5 5.9925 15.2575 3.75 12.5 3.75C9.7425 3.75 7.5 5.9925 7.5 8.75C7.5 11.5075 9.7425 13.75 12.5 13.75ZM26.25 7.5H25V6.25C25 5.5625 24.4375 5 23.75 5C23.0625 5 22.5 5.5625 22.5 6.25V7.5H21.25C20.5625 7.5 20 8.0625 20 8.75C20 9.4375 20.5625 10 21.25 10H22.5V11.25C22.5 11.9375 23.0625 12.5 23.75 12.5C24.4375 12.5 25 11.9375 25 11.25V10H26.25C26.9375 10 27.5 9.4375 27.5 8.75C27.5 8.0625 26.9375 7.5 26.25 7.5ZM21.25 25C21.25 25.69 20.6912 26.25 20 26.25H5C4.30875 26.25 3.75 25.69 3.75 25C3.75 20.175 7.67625 16.25 12.5 16.25C17.3237 16.25 21.25 20.175 21.25 25Z" fill="white"/>
</mask>
<g mask="url(#mask0_2293_5440)">
<rect width="30" height="30" fill="#0D8E83"/>
</g>
</svg>
