<svg width="28" height="28" viewBox="0 0 28 28" fill="none" xmlns="http://www.w3.org/2000/svg">
<mask id="mask0_2293_5458" style="mask-type:alpha" maskUnits="userSpaceOnUse" x="0" y="0" width="28" height="28">
<rect width="28" height="28" fill="#D9D9D9"/>
</mask>
<g mask="url(#mask0_2293_5458)">
<path d="M7 25.6664C6.02778 25.6664 5.20139 25.3261 4.52083 24.6456C3.84028 23.965 3.5 23.1386 3.5 22.1664V19.8331C3.5 19.5025 3.61181 19.2254 3.83542 19.0018C4.05903 18.7782 4.33611 18.6664 4.66667 18.6664H7V3.03307C7 2.89696 7.05833 2.8046 7.175 2.75599C7.29167 2.70738 7.39861 2.73168 7.49583 2.82891L8.34167 3.67474C8.45833 3.79141 8.59444 3.84974 8.75 3.84974C8.90556 3.84974 9.04167 3.79141 9.15833 3.67474L10.0917 2.74141C10.2083 2.62474 10.3444 2.56641 10.5 2.56641C10.6556 2.56641 10.7917 2.62474 10.9083 2.74141L11.8417 3.67474C11.9583 3.79141 12.0944 3.84974 12.25 3.84974C12.4056 3.84974 12.5417 3.79141 12.6583 3.67474L13.5917 2.74141C13.7083 2.62474 13.8444 2.56641 14 2.56641C14.1556 2.56641 14.2917 2.62474 14.4083 2.74141L15.3417 3.67474C15.4583 3.79141 15.5944 3.84974 15.75 3.84974C15.9056 3.84974 16.0417 3.79141 16.1583 3.67474L17.0917 2.74141C17.2083 2.62474 17.3444 2.56641 17.5 2.56641C17.6556 2.56641 17.7917 2.62474 17.9083 2.74141L18.8417 3.67474C18.9583 3.79141 19.0944 3.84974 19.25 3.84974C19.4056 3.84974 19.5417 3.79141 19.6583 3.67474L20.5917 2.74141C20.7083 2.62474 20.8444 2.56641 21 2.56641C21.1556 2.56641 21.2917 2.62474 21.4083 2.74141L22.3417 3.67474C22.4583 3.79141 22.5944 3.84974 22.75 3.84974C22.9056 3.84974 23.0417 3.79141 23.1583 3.67474L24.0042 2.82891C24.1014 2.73168 24.2083 2.70738 24.325 2.75599C24.4417 2.8046 24.5 2.89696 24.5 3.03307V22.1664C24.5 23.1386 24.1597 23.965 23.4792 24.6456C22.7986 25.3261 21.9722 25.6664 21 25.6664H7ZM21 23.3331C21.3306 23.3331 21.6076 23.2213 21.8312 22.9977C22.0549 22.774 22.1667 22.497 22.1667 22.1664V5.83307H9.33333V18.6664H18.6667C18.9972 18.6664 19.2743 18.7782 19.4979 19.0018C19.7215 19.2254 19.8333 19.5025 19.8333 19.8331V22.1664C19.8333 22.497 19.9451 22.774 20.1688 22.9977C20.3924 23.2213 20.6694 23.3331 21 23.3331ZM11.6667 8.16641H16.3333C16.6639 8.16641 16.941 8.27821 17.1646 8.50182C17.3882 8.72543 17.5 9.00252 17.5 9.33307C17.5 9.66363 17.3882 9.94071 17.1646 10.1643C16.941 10.3879 16.6639 10.4997 16.3333 10.4997H11.6667C11.3361 10.4997 11.059 10.3879 10.8354 10.1643C10.6118 9.94071 10.5 9.66363 10.5 9.33307C10.5 9.00252 10.6118 8.72543 10.8354 8.50182C11.059 8.27821 11.3361 8.16641 11.6667 8.16641ZM11.6667 11.6664H16.3333C16.6639 11.6664 16.941 11.7782 17.1646 12.0018C17.3882 12.2254 17.5 12.5025 17.5 12.8331C17.5 13.1636 17.3882 13.4407 17.1646 13.6643C16.941 13.8879 16.6639 13.9997 16.3333 13.9997H11.6667C11.3361 13.9997 11.059 13.8879 10.8354 13.6643C10.6118 13.4407 10.5 13.1636 10.5 12.8331C10.5 12.5025 10.6118 12.2254 10.8354 12.0018C11.059 11.7782 11.3361 11.6664 11.6667 11.6664ZM19.8333 10.4997C19.5028 10.4997 19.2257 10.3879 19.0021 10.1643C18.7785 9.94071 18.6667 9.66363 18.6667 9.33307C18.6667 9.00252 18.7785 8.72543 19.0021 8.50182C19.2257 8.27821 19.5028 8.16641 19.8333 8.16641C20.1639 8.16641 20.441 8.27821 20.6646 8.50182C20.8882 8.72543 21 9.00252 21 9.33307C21 9.66363 20.8882 9.94071 20.6646 10.1643C20.441 10.3879 20.1639 10.4997 19.8333 10.4997ZM19.8333 13.9997C19.5028 13.9997 19.2257 13.8879 19.0021 13.6643C18.7785 13.4407 18.6667 13.1636 18.6667 12.8331C18.6667 12.5025 18.7785 12.2254 19.0021 12.0018C19.2257 11.7782 19.5028 11.6664 19.8333 11.6664C20.1639 11.6664 20.441 11.7782 20.6646 12.0018C20.8882 12.2254 21 12.5025 21 12.8331C21 13.1636 20.8882 13.4407 20.6646 13.6643C20.441 13.8879 20.1639 13.9997 19.8333 13.9997ZM7 23.3331H17.5V20.9997H5.83333V22.1664C5.83333 22.497 5.94514 22.774 6.16875 22.9977C6.39236 23.2213 6.66944 23.3331 7 23.3331Z" fill="#FDFDFE"/>
</g>
</svg>
