<svg width="40" height="40" viewBox="0 0 40 40" fill="none" xmlns="http://www.w3.org/2000/svg">
<mask id="mask0_2293_5441" style="mask-type:alpha" maskUnits="userSpaceOnUse" x="6" y="6" width="28" height="28">
<rect x="6" y="6" width="28" height="28" fill="#D9D9D9"/>
</mask>
<g mask="url(#mask0_2293_5441)">
<path d="M21.75 31.6668C19.65 31.6668 17.8611 30.9279 16.3833 29.4502C14.9055 27.9724 14.1666 26.1835 14.1666 24.0835V23.4127C12.4944 23.1404 11.1041 22.3578 9.99581 21.0647C8.88748 19.7717 8.33331 18.2502 8.33331 16.5002V10.6668C8.33331 10.3363 8.44512 10.0592 8.66873 9.83558C8.89234 9.61197 9.16942 9.50016 9.49998 9.50016H11.8333C11.8333 9.16961 11.9451 8.89252 12.1687 8.66891C12.3923 8.4453 12.6694 8.3335 13 8.3335C13.3305 8.3335 13.6076 8.4453 13.8312 8.66891C14.0548 8.89252 14.1666 9.16961 14.1666 9.50016V11.8335C14.1666 12.1641 14.0548 12.4411 13.8312 12.6647C13.6076 12.8884 13.3305 13.0002 13 13.0002C12.6694 13.0002 12.3923 12.8884 12.1687 12.6647C11.9451 12.4411 11.8333 12.1641 11.8333 11.8335H10.6666V16.5002C10.6666 17.7835 11.1236 18.8821 12.0375 19.796C12.9514 20.7099 14.05 21.1668 15.3333 21.1668C16.6166 21.1668 17.7153 20.7099 18.6291 19.796C19.543 18.8821 20 17.7835 20 16.5002V11.8335H18.8333C18.8333 12.1641 18.7215 12.4411 18.4979 12.6647C18.2743 12.8884 17.9972 13.0002 17.6666 13.0002C17.3361 13.0002 17.059 12.8884 16.8354 12.6647C16.6118 12.4411 16.5 12.1641 16.5 11.8335V9.50016C16.5 9.16961 16.6118 8.89252 16.8354 8.66891C17.059 8.4453 17.3361 8.3335 17.6666 8.3335C17.9972 8.3335 18.2743 8.4453 18.4979 8.66891C18.7215 8.89252 18.8333 9.16961 18.8333 9.50016H21.1666C21.4972 9.50016 21.7743 9.61197 21.9979 9.83558C22.2215 10.0592 22.3333 10.3363 22.3333 10.6668V16.5002C22.3333 18.2502 21.7791 19.7717 20.6708 21.0647C19.5625 22.3578 18.1722 23.1404 16.5 23.4127V24.0835C16.5 25.5418 17.0104 26.7814 18.0312 27.8022C19.0521 28.8231 20.2916 29.3335 21.75 29.3335C23.2083 29.3335 24.4479 28.8231 25.4687 27.8022C26.4896 26.7814 27 25.5418 27 24.0835V22.1293C26.3194 21.8766 25.7604 21.4536 25.3229 20.8606C24.8854 20.2675 24.6666 19.5918 24.6666 18.8335C24.6666 17.8613 25.0069 17.0349 25.6875 16.3543C26.368 15.6738 27.1944 15.3335 28.1666 15.3335C29.1389 15.3335 29.9653 15.6738 30.6458 16.3543C31.3264 17.0349 31.6666 17.8613 31.6666 18.8335C31.6666 19.5918 31.4479 20.2675 31.0104 20.8606C30.5729 21.4536 30.0139 21.8766 29.3333 22.1293V24.0835C29.3333 26.1835 28.5944 27.9724 27.1166 29.4502C25.6389 30.9279 23.85 31.6668 21.75 31.6668ZM28.1666 20.0002C28.4972 20.0002 28.7743 19.8884 28.9979 19.6647C29.2215 19.4411 29.3333 19.1641 29.3333 18.8335C29.3333 18.5029 29.2215 18.2259 28.9979 18.0022C28.7743 17.7786 28.4972 17.6668 28.1666 17.6668C27.8361 17.6668 27.559 17.7786 27.3354 18.0022C27.1118 18.2259 27 18.5029 27 18.8335C27 19.1641 27.1118 19.4411 27.3354 19.6647C27.559 19.8884 27.8361 20.0002 28.1666 20.0002Z" fill="#FDFDFE"/>
</g>
</svg>
