<svg width="18" height="18" viewBox="0 0 18 18" fill="none" xmlns="http://www.w3.org/2000/svg">
<path fill-rule="evenodd" clip-rule="evenodd" d="M13.4949 5.2866C13.4949 4.87485 13.1619 4.5396 12.7494 4.53735L6.75469 4.49985H6.75019C6.33769 4.49985 6.00319 4.83285 6.00019 5.24535C5.99719 5.65935 6.33094 5.9976 6.74569 5.99985L10.9142 6.0261L4.71994 12.2196C4.42669 12.5129 4.42669 12.9876 4.71994 13.2801C4.86619 13.4271 5.05819 13.4999 5.25019 13.4999C5.44219 13.4999 5.63419 13.4271 5.78044 13.2801L11.9964 7.0641L12.0002 11.2506C12.0002 11.6646 12.3362 11.9999 12.7502 11.9999H12.7509C13.1649 11.9999 13.5002 11.6631 13.5002 11.2491L13.4949 5.2866Z" fill="#0D8E83"/>
<mask id="mask0_2302_51017" style="mask-type:luminance" maskUnits="userSpaceOnUse" x="4" y="4" width="10" height="10">
<path fill-rule="evenodd" clip-rule="evenodd" d="M13.4949 5.2866C13.4949 4.87485 13.1619 4.5396 12.7494 4.53735L6.75469 4.49985H6.75019C6.33769 4.49985 6.00319 4.83285 6.00019 5.24535C5.99719 5.65935 6.33094 5.9976 6.74569 5.99985L10.9142 6.0261L4.71994 12.2196C4.42669 12.5129 4.42669 12.9876 4.71994 13.2801C4.86619 13.4271 5.05819 13.4999 5.25019 13.4999C5.44219 13.4999 5.63419 13.4271 5.78044 13.2801L11.9964 7.0641L12.0002 11.2506C12.0002 11.6646 12.3362 11.9999 12.7502 11.9999H12.7509C13.1649 11.9999 13.5002 11.6631 13.5002 11.2491L13.4949 5.2866Z" fill="white"/>
</mask>
<g mask="url(#mask0_2302_51017)">
<rect width="18" height="18" fill="#0D8E83"/>
</g>
</svg>
