<svg width="20" height="20" viewBox="0 0 20 20" fill="none" xmlns="http://www.w3.org/2000/svg">
<path fill-rule="evenodd" clip-rule="evenodd" d="M15.8335 9.16667H5.946L8.9735 5.53334C9.2685 5.18001 9.22016 4.65417 8.86683 4.36001C8.51266 4.06501 7.98766 4.11334 7.6935 4.46667L3.52683 9.46667C3.49433 9.50584 3.47766 9.55167 3.4535 9.59501C3.4335 9.63001 3.40933 9.66001 3.39433 9.69834C3.35683 9.79417 3.33433 9.89501 3.33433 9.99667C3.33433 9.99751 3.3335 9.99917 3.3335 10C3.3335 10.0008 3.33433 10.0025 3.33433 10.0033C3.33433 10.105 3.35683 10.2058 3.39433 10.3017C3.40933 10.34 3.4335 10.37 3.4535 10.405C3.47766 10.4483 3.49433 10.4942 3.52683 10.5333L7.6935 15.5333C7.8585 15.7308 8.09516 15.8333 8.3335 15.8333C8.52183 15.8333 8.711 15.77 8.86683 15.64C9.22016 15.3458 9.2685 14.82 8.9735 14.4667L5.946 10.8333H15.8335C16.2935 10.8333 16.6668 10.46 16.6668 10C16.6668 9.54001 16.2935 9.16667 15.8335 9.16667Z" fill="#231F20"/>
<mask id="mask0_3689_7150" style="mask-type:luminance" maskUnits="userSpaceOnUse" x="3" y="4" width="14" height="12">
<path fill-rule="evenodd" clip-rule="evenodd" d="M15.8335 9.16667H5.946L8.9735 5.53334C9.2685 5.18001 9.22016 4.65417 8.86683 4.36001C8.51266 4.06501 7.98766 4.11334 7.6935 4.46667L3.52683 9.46667C3.49433 9.50584 3.47766 9.55167 3.4535 9.59501C3.4335 9.63001 3.40933 9.66001 3.39433 9.69834C3.35683 9.79417 3.33433 9.89501 3.33433 9.99667C3.33433 9.99751 3.3335 9.99917 3.3335 10C3.3335 10.0008 3.33433 10.0025 3.33433 10.0033C3.33433 10.105 3.35683 10.2058 3.39433 10.3017C3.40933 10.34 3.4335 10.37 3.4535 10.405C3.47766 10.4483 3.49433 10.4942 3.52683 10.5333L7.6935 15.5333C7.8585 15.7308 8.09516 15.8333 8.3335 15.8333C8.52183 15.8333 8.711 15.77 8.86683 15.64C9.22016 15.3458 9.2685 14.82 8.9735 14.4667L5.946 10.8333H15.8335C16.2935 10.8333 16.6668 10.46 16.6668 10C16.6668 9.54001 16.2935 9.16667 15.8335 9.16667Z" fill="white"/>
</mask>
<g mask="url(#mask0_3689_7150)">
<rect width="20" height="20" fill="#475367"/>
</g>
</svg>
