<svg width="40" height="40" viewBox="0 0 40 40" fill="none" xmlns="http://www.w3.org/2000/svg">
<mask id="mask0_2293_5453" style="mask-type:alpha" maskUnits="userSpaceOnUse" x="6" y="6" width="28" height="28">
<rect x="6" y="6" width="28" height="28" fill="#D9D9D9"/>
</mask>
<g mask="url(#mask0_2293_5453)">
<path d="M16.0625 30.5C14.2347 30.5 12.684 29.8632 11.4104 28.5896C10.1368 27.316 9.5 25.7653 9.5 23.9375C9.5 23.0625 9.66528 22.2264 9.99583 21.4292C10.3264 20.6319 10.8028 19.9222 11.425 19.3L19.3 11.425C19.9222 10.8028 20.6319 10.3264 21.4292 9.99583C22.2264 9.66528 23.0625 9.5 23.9375 9.5C25.7653 9.5 27.316 10.1368 28.5896 11.4104C29.8632 12.684 30.5 14.2347 30.5 16.0625C30.5 16.9375 30.3347 17.7736 30.0042 18.5708C29.6736 19.3681 29.1972 20.0778 28.575 20.7L20.7 28.575C20.0778 29.1972 19.3681 29.6736 18.5708 30.0042C17.7736 30.3347 16.9375 30.5 16.0625 30.5ZM23.8208 22.1583L26.9417 19.0667C27.3306 18.6778 27.6319 18.2208 27.8458 17.6958C28.0597 17.1708 28.1667 16.6264 28.1667 16.0625C28.1667 14.8958 27.7535 13.8993 26.9271 13.0729C26.1007 12.2465 25.1042 11.8333 23.9375 11.8333C23.3736 11.8333 22.8292 11.9403 22.3042 12.1542C21.7792 12.3681 21.3222 12.6694 20.9333 13.0583L17.8417 16.1792L23.8208 22.1583ZM16.0625 28.1667C16.6264 28.1667 17.1708 28.0597 17.6958 27.8458C18.2208 27.6319 18.6778 27.3306 19.0667 26.9417L22.1583 23.8208L16.1792 17.8417L13.0583 20.9333C12.6694 21.3222 12.3681 21.7792 12.1542 22.3042C11.9403 22.8292 11.8333 23.3736 11.8333 23.9375C11.8333 25.1042 12.2465 26.1007 13.0729 26.9271C13.8993 27.7535 14.8958 28.1667 16.0625 28.1667Z" fill="#FDFDFE"/>
</g>
</svg>
