<svg width="28" height="28" viewBox="0 0 28 28" fill="none" xmlns="http://www.w3.org/2000/svg">
<mask id="mask0_2293_5450" style="mask-type:alpha" maskUnits="userSpaceOnUse" x="0" y="0" width="28" height="28">
<rect width="28" height="28" fill="#D9D9D9"/>
</mask>
<g mask="url(#mask0_2293_5450)">
<path d="M7.81671 24.5C7.25282 24.5 6.75212 24.3153 6.31462 23.9458C5.87712 23.5764 5.60976 23.1097 5.51254 22.5458L3.73337 11.8708C3.67504 11.5208 3.75768 11.2049 3.98129 10.9229C4.2049 10.641 4.50143 10.5 4.87087 10.5H23.1292C23.4986 10.5 23.7952 10.641 24.0188 10.9229C24.2424 11.2049 24.325 11.5208 24.2667 11.8708L22.4875 22.5458C22.3903 23.1097 22.123 23.5764 21.6855 23.9458C21.248 24.3153 20.7473 24.5 20.1834 24.5H7.81671ZM6.30004 12.8333L7.78754 22.1667H20.2125L21.7 12.8333H6.30004ZM11.6667 17.5H16.3334C16.6639 17.5 16.941 17.3882 17.1646 17.1646C17.3882 16.941 17.5 16.6639 17.5 16.3333C17.5 16.0028 17.3882 15.7257 17.1646 15.5021C16.941 15.2785 16.6639 15.1667 16.3334 15.1667H11.6667C11.3362 15.1667 11.0591 15.2785 10.8355 15.5021C10.6118 15.7257 10.5 16.0028 10.5 16.3333C10.5 16.6639 10.6118 16.941 10.8355 17.1646C11.0591 17.3882 11.3362 17.5 11.6667 17.5ZM7.00004 9.33333C6.66949 9.33333 6.3924 9.22153 6.16879 8.99792C5.94518 8.77431 5.83337 8.49722 5.83337 8.16667C5.83337 7.83611 5.94518 7.55903 6.16879 7.33542C6.3924 7.11181 6.66949 7 7.00004 7H21C21.3306 7 21.6077 7.11181 21.8313 7.33542C22.0549 7.55903 22.1667 7.83611 22.1667 8.16667C22.1667 8.49722 22.0549 8.77431 21.8313 8.99792C21.6077 9.22153 21.3306 9.33333 21 9.33333H7.00004ZM9.33337 5.83333C9.00282 5.83333 8.72574 5.72153 8.50212 5.49792C8.27851 5.27431 8.16671 4.99722 8.16671 4.66667C8.16671 4.33611 8.27851 4.05903 8.50212 3.83542C8.72574 3.61181 9.00282 3.5 9.33337 3.5H18.6667C18.9973 3.5 19.2743 3.61181 19.498 3.83542C19.7216 4.05903 19.8334 4.33611 19.8334 4.66667C19.8334 4.99722 19.7216 5.27431 19.498 5.49792C19.2743 5.72153 18.9973 5.83333 18.6667 5.83333H9.33337Z" fill="#FDFDFE"/>
</g>
</svg>
