<svg width="20" height="20" viewBox="0 0 20 20" fill="none" xmlns="http://www.w3.org/2000/svg">
<path d="M7.18752 7.90165C9.15996 7.90165 10.7589 6.30266 10.7589 4.33022C10.7589 2.35777 9.15996 0.758789 7.18752 0.758789C5.21507 0.758789 3.61609 2.35777 3.61609 4.33022C3.61609 6.30266 5.21507 7.90165 7.18752 7.90165Z" stroke="#FDFDFE" stroke-width="1.5" stroke-linecap="round" stroke-linejoin="round"/>
<path d="M13.4822 10.0449C13.0877 10.0449 12.7679 10.3647 12.7679 10.7592V12.7682H10.759C10.3645 12.7682 10.0447 13.088 10.0447 13.4825V15.8039C10.0447 16.1984 10.3645 16.5181 10.759 16.5181H12.7679V18.5271C12.7679 18.9216 13.0877 19.2414 13.4822 19.2414H15.8036C16.198 19.2414 16.5179 18.9216 16.5179 18.5271V16.5181H18.5269C18.9213 16.5181 19.2412 16.1984 19.2412 15.8039V13.4825C19.2412 13.088 18.9213 12.7682 18.5269 12.7682H16.5179V10.7592C16.5179 10.3647 16.198 10.0449 15.8036 10.0449H13.4822Z" stroke="#FDFDFE" stroke-width="1.5" stroke-linecap="round" stroke-linejoin="round"/>
<path d="M7.89762 17.902H0.758911V17.1276C0.770284 16.0387 1.05745 14.9704 1.59358 14.0226C2.12973 13.0748 2.89734 12.2784 3.82473 11.7077C4.75213 11.137 5.80904 10.8107 6.89674 10.7592C7.28914 10.7406 7.68093 10.758 8.06735 10.8104" stroke="#FDFDFE" stroke-width="1.5" stroke-linecap="round" stroke-linejoin="round"/>
</svg>
