<svg width="40" height="40" viewBox="0 0 40 40" fill="none" xmlns="http://www.w3.org/2000/svg">
<path fill-rule="evenodd" clip-rule="evenodd" d="M20 10.8375L11.8333 15.4318V15.601C11.8333 21.131 14.827 26.2515 19.6477 28.964L20 29.1623L20.3523 28.964C25.173 26.2515 28.1667 21.131 28.1667 15.601V15.4318L20 10.8375ZM20 31.4922C19.6045 31.4922 19.209 31.3942 18.8578 31.1958L18.5043 30.9963C12.9498 27.8732 9.5 21.9733 9.5 15.601V15.4318C9.5 14.593 9.955 13.8137 10.6877 13.3995L18.8567 8.80516C19.5625 8.4085 20.4387 8.40733 21.1422 8.804L29.31 13.3983C30.045 13.8137 30.5 14.593 30.5 15.4318V15.601C30.5 21.9733 27.0502 27.8732 21.4957 30.9963L21.1433 31.1947C20.791 31.393 20.3955 31.4922 20 31.4922Z" fill="#FDFDFE"/>
<mask id="mask0_3129_126949" style="mask-type:luminance" maskUnits="userSpaceOnUse" x="9" y="8" width="22" height="24">
<path fill-rule="evenodd" clip-rule="evenodd" d="M20 10.8375L11.8333 15.4318V15.601C11.8333 21.131 14.827 26.2515 19.6477 28.964L20 29.1623L20.3523 28.964C25.173 26.2515 28.1667 21.131 28.1667 15.601V15.4318L20 10.8375ZM20 31.4922C19.6045 31.4922 19.209 31.3942 18.8578 31.1958L18.5043 30.9963C12.9498 27.8732 9.5 21.9733 9.5 15.601V15.4318C9.5 14.593 9.955 13.8137 10.6877 13.3995L18.8567 8.80516C19.5625 8.4085 20.4387 8.40733 21.1422 8.804L29.31 13.3983C30.045 13.8137 30.5 14.593 30.5 15.4318V15.601C30.5 21.9733 27.0502 27.8732 21.4957 30.9963L21.1433 31.1947C20.791 31.393 20.3955 31.4922 20 31.4922Z" fill="white"/>
</mask>
<g mask="url(#mask0_3129_126949)">
<rect x="6" y="6" width="28" height="28" fill="#FDFDFE"/>
</g>
</svg>
